<svg width="189" height="70" viewBox="0 0 189 70" fill="none" xmlns="http://www.w3.org/2000/svg">
<path d="M186.2 0H2.8C1.2536 0 0 1.2536 0 2.8V67.2C0 68.7464 1.2536 70 2.8 70H186.2C187.746 70 189 68.7464 189 67.2V2.8C189 1.2536 187.746 0 186.2 0Z" fill="url(#paint0_radial_314_13)"/>
<path d="M53.951 52.5H29.3558V46.7544H32.8838V25.4856H29.3558V19.74H44.2238V25.4856H39.6374V46.7544H48.2054L49.2134 40.404L54.959 40.908L53.951 52.5ZM90.1691 36.0696C90.1691 40.7064 88.6739 44.688 85.6835 48.0144C82.7267 51.3408 78.5939 53.004 73.2851 53.004C67.9429 53.004 63.8437 51.3408 60.9877 48.0144C58.1317 44.688 56.7037 40.74 56.7037 36.1704C56.7037 31.3992 58.2157 27.384 61.2397 24.1248C64.2637 20.8656 68.3461 19.236 73.4867 19.236C78.7283 19.236 82.8107 20.8992 85.7339 24.2256C88.6907 27.5184 90.1691 31.4664 90.1691 36.0696ZM82.8611 36.2712C82.8611 32.7768 82.0547 30.0552 80.4419 28.1064C78.8291 26.1576 76.4939 25.1832 73.4363 25.1832C70.1771 25.1832 67.7917 26.2248 66.2797 28.308C64.7677 30.3576 64.0117 32.928 64.0117 36.0192C64.0117 39.0096 64.7509 41.5968 66.2293 43.7808C67.7077 45.9648 70.1771 47.0568 73.6379 47.0568C76.8299 47.0568 79.1651 46.0656 80.6435 44.0832C82.1219 42.0672 82.8611 39.4632 82.8611 36.2712ZM124.538 40.1016H122.925V52.5H117.683L117.028 49.0728C116.02 50.2488 114.727 51.2064 113.147 51.9456C111.602 52.6512 109.771 53.004 107.654 53.004C103.051 53.004 99.3881 51.408 96.6665 48.216C93.9785 45.024 92.6345 41.076 92.6345 36.372C92.6345 31.668 94.0625 27.636 96.9185 24.276C99.7745 20.916 103.975 19.236 109.519 19.236C112.173 19.236 114.575 19.6224 116.726 20.3952C118.91 21.168 120.539 22.092 121.615 23.1672L122.522 30.2736L117.079 30.7776L116.171 26.9472C115.298 26.376 114.189 25.9392 112.845 25.6368C111.535 25.3344 110.325 25.1832 109.216 25.1832C106.528 25.1832 104.294 26.0904 102.513 27.9048C100.766 29.7192 99.8921 32.508 99.8921 36.2712C99.8921 39.9 100.715 42.6048 102.362 44.3856C104.042 46.1664 106.209 47.0568 108.863 47.0568C111.081 47.0568 112.845 46.4688 114.155 45.2928C115.466 44.1168 116.121 42.4536 116.121 40.3032V40.1016H109.72V34.4064H124.538V40.1016ZM160.404 36.0696C160.404 40.7064 158.909 44.688 155.919 48.0144C152.962 51.3408 148.829 53.004 143.52 53.004C138.178 53.004 134.079 51.3408 131.223 48.0144C128.367 44.688 126.939 40.74 126.939 36.1704C126.939 31.3992 128.451 27.384 131.475 24.1248C134.499 20.8656 138.581 19.236 143.722 19.236C148.964 19.236 153.046 20.8992 155.969 24.2256C158.926 27.5184 160.404 31.4664 160.404 36.0696ZM153.096 36.2712C153.096 32.7768 152.29 30.0552 150.677 28.1064C149.064 26.1576 146.729 25.1832 143.671 25.1832C140.412 25.1832 138.027 26.2248 136.515 28.308C135.003 30.3576 134.247 32.928 134.247 36.0192C134.247 39.0096 134.986 41.5968 136.464 43.7808C137.943 45.9648 140.412 47.0568 143.873 47.0568C147.065 47.0568 149.4 46.0656 150.879 44.0832C152.357 42.0672 153.096 39.4632 153.096 36.2712Z" fill="white"/>
<defs>
<radialGradient id="paint0_radial_314_13" cx="0" cy="0" r="1" gradientUnits="userSpaceOnUse" gradientTransform="translate(94.5 35) rotate(145.713) scale(67.778 129.772)">
<stop stop-color="#5A87DD"/>
<stop offset="0.552083" stop-color="#3E8D9E"/>
<stop offset="1" stop-color="#58AB79"/>
</radialGradient>
</defs>
</svg>
